<svg width="23" height="23" viewBox="0 0 23 23" fill="none" xmlns="http://www.w3.org/2000/svg">
<path d="M6.46807 5.95029V6.64336C6.69991 6.64336 6.9164 6.52743 7.04491 6.33447L6.46807 5.95029ZM7.76758 3.9991L7.19074 3.61492V3.61492L7.76758 3.9991ZM14.4094 3.9991L14.9862 3.61492V3.61492L14.4094 3.9991ZM15.7089 5.95029L15.1321 6.33447C15.2606 6.52743 15.4771 6.64336 15.7089 6.64336V5.95029ZM13.1677 12.8878C13.1677 14.0383 12.2361 14.9697 11.0885 14.9697V16.3559C13.003 16.3559 14.5538 14.8025 14.5538 12.8878H13.1677ZM11.0885 14.9697C9.94084 14.9697 9.00931 14.0383 9.00931 12.8878H7.62318C7.62318 14.8025 9.17401 16.3559 11.0885 16.3559V14.9697ZM9.00931 12.8878C9.00931 11.7373 9.94084 10.8059 11.0885 10.8059V9.41973C9.17401 9.41973 7.62318 10.9731 7.62318 12.8878H9.00931ZM11.0885 10.8059C12.2361 10.8059 13.1677 11.7373 13.1677 12.8878H14.5538C14.5538 10.9731 13.003 9.41973 11.0885 9.41973V10.8059ZM7.04491 6.33447L8.34442 4.38328L7.19074 3.61492L5.89124 5.56611L7.04491 6.33447ZM9.30535 3.86836H12.8716V2.48223H9.30535V3.86836ZM13.8326 4.38328L15.1321 6.33447L16.2858 5.56611L14.9862 3.61492L13.8326 4.38328ZM12.8716 3.86836C13.2575 3.86836 13.6182 4.06141 13.8326 4.38328L14.9862 3.61492C14.5151 2.90745 13.7216 2.48223 12.8716 2.48223V3.86836ZM8.34442 4.38328C8.55879 4.06141 8.91944 3.86836 9.30535 3.86836V2.48223C8.45538 2.48223 7.66192 2.90745 7.19074 3.61492L8.34442 4.38328ZM19.6363 9.65029V16.1253H21.0224V9.65029H19.6363ZM16.633 19.1322H5.54399V20.5184H16.633V19.1322ZM2.54072 16.1253V9.65029H1.15459V16.1253H2.54072ZM5.54399 19.1322C3.88598 19.1322 2.54072 17.7866 2.54072 16.1253H1.15459C1.15459 18.5509 3.11915 20.5184 5.54399 20.5184V19.1322ZM19.6363 16.1253C19.6363 17.7866 18.291 19.1322 16.633 19.1322V20.5184C19.0578 20.5184 21.0224 18.5509 21.0224 16.1253H19.6363ZM16.633 6.64336C18.291 6.64336 19.6363 7.98896 19.6363 9.65029H21.0224C21.0224 7.22472 19.0578 5.25723 16.633 5.25723V6.64336ZM5.54399 5.25723C3.11915 5.25723 1.15459 7.22472 1.15459 9.65029H2.54072C2.54072 7.98896 3.88598 6.64336 5.54399 6.64336V5.25723ZM5.54399 6.64336H6.46807V5.25723H5.54399V6.64336ZM16.633 5.25723H15.7089V6.64336H16.633V5.25723Z" fill="#7D848D"/>
<ellipse cx="11.0891" cy="5.95039" rx="0.924084" ry="0.925" fill="#7D848D"/>
</svg>
