<svg width="24" height="25" viewBox="0 0 24 25" fill="none" xmlns="http://www.w3.org/2000/svg">
<path opacity="0.4" fill-rule="evenodd" clip-rule="evenodd" d="M6 3.25C4.20507 3.25 2.75 4.70507 2.75 6.5V18.5C2.75 20.2949 4.20507 21.75 6 21.75H18C19.7949 21.75 21.25 20.2949 21.25 18.5V12.5C21.25 12.0858 21.5858 11.75 22 11.75C22.4142 11.75 22.75 12.0858 22.75 12.5V18.5C22.75 21.1234 20.6234 23.25 18 23.25H6C3.37665 23.25 1.25 21.1234 1.25 18.5V6.5C1.25 3.87665 3.37665 1.75 6 1.75H12C12.4142 1.75 12.75 2.08579 12.75 2.5C12.75 2.91421 12.4142 3.25 12 3.25H6Z" fill="#0BAC00"/>
<path d="M9.15467 16.4893L12.1583 16.0602C12.5916 15.9983 12.9931 15.7975 13.3025 15.4881L19.9773 8.81335C19.9773 8.81335 18.547 8.81335 17.1167 7.38305C15.6864 5.95276 15.6864 4.52246 15.6864 4.52246L9.01164 11.1972C8.70217 11.5067 8.50142 11.9082 8.43952 12.3414L8.01044 15.345C7.91508 16.0125 8.4872 16.5846 9.15467 16.4893Z" fill="#0BAC00"/>
<path opacity="0.4" d="M21.4075 4.52275L19.9772 3.09245C19.1872 2.30252 17.9065 2.30252 17.1166 3.09245L15.6863 4.52275C15.6863 4.52275 15.6863 5.95305 17.1166 7.38334C18.5469 8.81364 19.9772 8.81364 19.9772 8.81364L21.4075 7.38334C22.1974 6.59341 22.1974 5.31268 21.4075 4.52275Z" fill="#0BAC00"/>
</svg>
