<svg width="20" height="20" viewBox="0 0 20 20" fill="none" xmlns="http://www.w3.org/2000/svg">
<path d="M0 2C0 0.89543 0.895431 0 2 0H7C8.10457 0 9 0.895431 9 2V5C9 6.10457 8.10457 7 7 7H2C0.89543 7 0 6.10457 0 5V2Z" fill="#545454"/>
<path opacity="0.4" d="M0 11C0 9.89543 0.895431 9 2 9H7C8.10457 9 9 9.89543 9 11V18C9 19.1046 8.10457 20 7 20H2C0.89543 20 0 19.1046 0 18V11Z" fill="#545454"/>
<path opacity="0.4" d="M11 2C11 0.895431 11.8954 0 13 0H18C19.1046 0 20 0.895431 20 2V9C20 10.1046 19.1046 11 18 11H13C11.8954 11 11 10.1046 11 9V2Z" fill="#545454"/>
<path d="M11 15C11 13.8954 11.8954 13 13 13H18C19.1046 13 20 13.8954 20 15V18C20 19.1046 19.1046 20 18 20H13C11.8954 20 11 19.1046 11 18V15Z" fill="#545454"/>
</svg>
