<svg width="16" height="14" viewBox="0 0 16 14" fill="none" xmlns="http://www.w3.org/2000/svg">
<path opacity="0.4" fill-rule="evenodd" clip-rule="evenodd" d="M0.333252 1.66675C0.333252 1.11446 0.780967 0.666748 1.33325 0.666748H14.6666C15.2189 0.666748 15.6666 1.11446 15.6666 1.66675C15.6666 2.21903 15.2189 2.66675 14.6666 2.66675H1.33325C0.780967 2.66675 0.333252 2.21903 0.333252 1.66675Z" fill="#00002D"/>
<path fill-rule="evenodd" clip-rule="evenodd" d="M0.333252 7C0.333252 6.44772 0.780967 6 1.33325 6H14.6666C15.2189 6 15.6666 6.44772 15.6666 7C15.6666 7.55228 15.2189 8 14.6666 8H1.33325C0.780967 8 0.333252 7.55228 0.333252 7Z" fill="#00002D"/>
<path opacity="0.4" fill-rule="evenodd" clip-rule="evenodd" d="M0.333252 12.3335C0.333252 11.7812 0.780967 11.3335 1.33325 11.3335H14.6666C15.2189 11.3335 15.6666 11.7812 15.6666 12.3335C15.6666 12.8858 15.2189 13.3335 14.6666 13.3335H1.33325C0.780967 13.3335 0.333252 12.8858 0.333252 12.3335Z" fill="#00002D"/>
</svg>
