<svg width="21" height="16" viewBox="0 0 21 16" fill="none" xmlns="http://www.w3.org/2000/svg">
<path opacity="0.4" d="M19.6842 5.87225L8.45352 0.260329C6.45607 -0.737791 4.30682 1.31474 5.21382 3.35425L6.85018 7.03384C7.12373 7.64894 7.12373 8.35106 6.85018 8.96616L5.21382 12.6458C4.30682 14.6853 6.45607 16.7378 8.45352 15.7397L19.6842 10.1278C21.4386 9.25107 21.4386 6.74893 19.6842 5.87225Z" fill="#545454"/>
<path fill-rule="evenodd" clip-rule="evenodd" d="M6.75 8C6.75 7.58579 7.08579 7.25 7.5 7.25H11C11.4142 7.25 11.75 7.58579 11.75 8C11.75 8.41421 11.4142 8.75 11 8.75H7.5C7.08579 8.75 6.75 8.41421 6.75 8Z" fill="#545454"/>
<path fill-rule="evenodd" clip-rule="evenodd" d="M0.25 6C0.25 5.58579 0.585786 5.25 1 5.25H3C3.41421 5.25 3.75 5.58579 3.75 6C3.75 6.41421 3.41421 6.75 3 6.75H1C0.585786 6.75 0.25 6.41421 0.25 6Z" fill="#545454"/>
<path fill-rule="evenodd" clip-rule="evenodd" d="M0.25 10C0.25 9.58579 0.585786 9.25 1 9.25H3C3.41421 9.25 3.75 9.58579 3.75 10C3.75 10.4142 3.41421 10.75 3 10.75H1C0.585786 10.75 0.25 10.4142 0.25 10Z" fill="#545454"/>
</svg>
