<svg width="24" height="23" viewBox="0 0 24 23" fill="none" xmlns="http://www.w3.org/2000/svg">
<path d="M9.23714 14.2755C9.23714 14.2755 10.2767 15.2005 12.0094 15.2005C13.742 15.2005 14.7816 14.2755 14.7816 14.2755M16.6298 9.65049C16.6298 10.1614 16.2161 10.5755 15.7057 10.5755C15.1954 10.5755 14.7816 10.1614 14.7816 9.65049C14.7816 9.13963 15.1954 8.72549 15.7057 8.72549C16.2161 8.72549 16.6298 9.13963 16.6298 9.65049ZM21.2502 11.5005C21.2502 16.6091 17.113 20.7505 12.0094 20.7505C6.90582 20.7505 2.76855 16.6091 2.76855 11.5005C2.76855 6.39185 6.90582 2.25049 12.0094 2.25049C17.113 2.25049 21.2502 6.39185 21.2502 11.5005ZM9.23714 9.65049C9.23714 10.1614 8.82341 10.5755 8.31306 10.5755C7.8027 10.5755 7.38897 10.1614 7.38897 9.65049C7.38897 9.13963 7.8027 8.72549 8.31306 8.72549C8.82341 8.72549 9.23714 9.13963 9.23714 9.65049Z" stroke="#7D848D" stroke-width="1.38613" stroke-linecap="round" stroke-linejoin="round"/>
</svg>
