<svg width="24" height="25" viewBox="0 0 24 25" fill="none" xmlns="http://www.w3.org/2000/svg">
<g opacity="0.4">
<path d="M14.75 23.25H8.75C6.54086 23.25 4.75 21.4591 4.75 19.25V6.25H18.75V19.25C18.75 21.4591 16.9591 23.25 14.75 23.25Z" fill="#D20000"/>
</g>
<path fill-rule="evenodd" clip-rule="evenodd" d="M13.75 10.5C14.1642 10.5 14.5 10.8358 14.5 11.25L14.5 17.25C14.5 17.6642 14.1642 18 13.75 18C13.3358 18 13 17.6642 13 17.25L13 11.25C13 10.8358 13.3358 10.5 13.75 10.5Z" fill="#D20000"/>
<path fill-rule="evenodd" clip-rule="evenodd" d="M9.75 10.5C10.1642 10.5 10.5 10.8358 10.5 11.25L10.5 17.25C10.5 17.6642 10.1642 18 9.75 18C9.33579 18 9 17.6642 9 17.25L9 11.25C9 10.8358 9.33579 10.5 9.75 10.5Z" fill="#D20000"/>
<path fill-rule="evenodd" clip-rule="evenodd" d="M8.53223 3.72457C9.04226 2.95953 9.9009 2.5 10.8204 2.5H12.6796C13.5991 2.5 14.4577 2.95953 14.9678 3.72457L16.1514 5.5H20.75C21.1642 5.5 21.5 5.83579 21.5 6.25C21.5 6.66421 21.1642 7 20.75 7H2.75C2.33579 7 2 6.66421 2 6.25C2 5.83579 2.33579 5.5 2.75 5.5H7.34861L8.53223 3.72457Z" fill="#D20000"/>
</svg>
